<svg xmlns="http://www.w3.org/2000/svg" xmlns:xlink="http://www.w3.org/1999/xlink" width="180" zoomAndPan="magnify" viewBox="0 0 135.12 143.04" height="180" preserveAspectRatio="xMidYMid meet" version="1.2"><defs><clipPath id="c32e818a13"><path d="M 15 26.378906 L 65 26.378906 L 65 107.585938 L 15 107.585938 Z M 15 26.378906 "/></clipPath><clipPath id="fcf828ca24"><path d="M 69 26.378906 L 119.199219 26.378906 L 119.199219 107.585938 L 69 107.585938 Z M 69 26.378906 "/></clipPath></defs><g id="782bbe8e5e"><g clip-rule="nonzero" clip-path="url(#c32e818a13)"><path style=" stroke:none;fill-rule:nonzero;fill:#ca9f9e;fill-opacity:1;" d="M 22.238281 34.296875 C 26.664062 29.695312 32.191406 27.253906 38.796875 26.925781 C 40.015625 26.71875 41.261719 26.585938 42.539062 26.585938 C 49.675781 26.585938 56.015625 29.9375 60.113281 35.136719 C 62.351562 37.757812 63.769531 40.6875 64.332031 43.933594 C 64.703125 45.554688 64.917969 47.234375 64.917969 48.964844 C 64.917969 61.328125 54.898438 71.34375 42.539062 71.34375 C 37.5 71.34375 32.875 69.660156 29.132812 66.859375 C 29.125 67.140625 29.085938 67.398438 29.085938 67.691406 C 29.085938 79.554688 38.128906 91.410156 56.210938 103.273438 L 53.585938 107.359375 C 27.921875 91.414062 15.085938 73.914062 15.085938 54.855469 C 15.085938 46.109375 17.476562 39.257812 22.238281 34.296875 Z M 22.238281 34.296875 "/></g><g clip-rule="nonzero" clip-path="url(#fcf828ca24)"><path style=" stroke:none;fill-rule:nonzero;fill:#ca9f9e;fill-opacity:1;" d="M 93.203125 26.90625 C 94.382812 26.71875 95.585938 26.585938 96.820312 26.585938 C 109.179688 26.585938 119.199219 36.609375 119.199219 48.964844 C 119.199219 61.324219 109.179688 71.34375 96.820312 71.34375 C 91.652344 71.34375 86.902344 69.574219 83.105469 66.625 C 83.089844 66.980469 83.046875 67.3125 83.046875 67.691406 C 83.046875 79.558594 92.085938 91.410156 110.171875 103.273438 L 107.546875 107.359375 C 81.882812 91.414062 69.046875 73.914062 69.046875 54.855469 C 69.046875 46.105469 71.429688 39.25 76.191406 34.292969 C 80.71875 29.589844 86.398438 27.144531 93.203125 26.90625 Z M 93.203125 26.90625 "/></g></g></svg>